<?xml version="1.0" encoding="UTF-8"?>
<svg id="Ebene_1" data-name="Ebene 1" xmlns="http://www.w3.org/2000/svg" viewBox="0 0 1133.86 1133.86">
  <defs>
    <style>
      .cls-1 {
        fill: rgba(255, 255, 255, 0);
      }

      .cls-1, .cls-2, .cls-3, .cls-4, .cls-5 {
        stroke-width: 0px;
      }

      .cls-2 {
        fill: #0c382f;
      }

      .cls-3 {
        fill: #327a2b;
      }

      .cls-4 {
        fill: #f16402;
      }

      .cls-5 {
        fill: #fca101;
      }
    </style>
  </defs>
  <g id="Ebene_1-2" data-name="Ebene 1">
    <path class="cls-5" d="M846.98,252.86c-3.77-4.39-8.62-8.17-13.36-12.07-34.86-28.53-73.48-51.45-115.87-68.4-31.46-12.56-62.92-22.19-96.44-27.07-7.77-1.22-15.79-1.58-23.56-2.32-53.69-4.63-108.22,3.41-160.69,22.19-35.95,12.92-68.14,28.29-96.56,46.33-17.49,11.09-34.74,23.65-50.53,36.7-3.04,2.44-7.04,7.19-6.68,11.46.24,3.17,1.34,5.85,3.16,8.05,14.58,17.19,31.7,34.38,51.5,51.69,21.01,18.41,44.21,34.14,69.23,45.96,10.08,4.75,21.62,8.05,34.74,9.75,23.08,3.41,47.73,1.95,67.17-9.27,12.02-6.95,20.16-17.31,24.17-31.21,1.21-3.78.97-8.66.73-12.68-.12-1.22-.61-2.56-1.46-3.54-3.52-4.39-7.89-8.29-11.17-12.68-10.93-14.51-14.94-31.09-12.02-49.86,2.06-13.65,8.26-25.36,18.58-34.87,12.02-11.09,25.99-16.09,41.78-14.87,18.46,1.46,32.79,9.14,43,23.16,9.11,12.31,13.12,26.21,12.15,41.33-1.21,18.53-10.2,35.36-23.93,46.94-1.34,1.1-2.06,2.56-2.06,4.39-.85,30.24,25.63,49.5,52.59,53.77,7.65,1.22,16.88,1.58,27.81,1.1,27.57-1.22,54.66-13.41,77.37-28.16,32.67-21.21,59.76-46.45,87.57-77.42,4.86-5.24,8.62-11.7,2.79-18.41Z"/>
    <path class="cls-3" d="M178.59,736.76c-15.55-34.87-26.24-71.08-32.07-108.51-8.26-52.67-5.83-104.85,7.17-156.67,4.98-19.51,11.17-39.5,19.19-58.4,14.45-34.02,32.31-65.35,53.69-94,3.89-5.24,7.77-9.51,11.42-13.05,4.25-3.9,10.08-3.54,15.06-.61,3.77,2.32,7.77,4.88,12.27,7.92,25.51,17.43,52.11,36.45,79.92,56.94,12.39,9.14,23.56,19.63,34.49,30.24,25.14,24.63,43.6,54.13,55.39,88.27,8.02,23.41,11.17,48.52,9.6,75.22-2.31,36.7-14.33,70.47-36.2,101.31-10.81,15.24-24.05,28.16-37.9,40.35-13.72,12.19-31.82,25.97-48.1,37.79-19.68,14.26-39.6,29.02-59.76,44.13-8.75,6.58-17.61,13.17-26.72,19.63-5.34,3.78-9.96,4.51-13.97,2.07-2.06-1.22-4.62-4.15-7.65-8.78-7.29-10.97-13.48-20.85-18.46-29.5-5.95-10.36-11.78-21.82-17.37-34.38ZM262.76,523.77c-.24.49-.73.98-1.34,1.22-.49.12-.73,0-1.09-.12-12.75-8.78-28.91-11.58-44.33-9.27-.36,0-.61.37-.61.61-.61,19.63,4.49,36.21,19.92,48.77.24.24.73.24,1.58.24l-.24,2.44c-.97-.12-1.82-.12-2.55,0-14.45,1.95-25.87,8.66-34.25,20.24-.73.98-.61,1.95.24,2.8,5.59,5.61,11.78,10.85,19.56,13.53,8.62,3.05,17.73,3.9,27.21,2.44l6.44,7.56c.36.49.24.73-.24.73-5.83.49-10.57,1.1-14.21,1.71-16.03,3.05-28.18,11.58-39.11,23.41-.36.37-.36.85,0,1.22,8.5,8.66,18.83,13.9,30.97,15.73,14.33,2.19,30.12,1.22,42.88-5.61,7.53-4.02,14.21-9.39,20.04-16.09.61-.61,1.58-.61,2.06,0,3.4,3.9,7.04,7.56,11.17,10.73,15.91,12.56,37.53,14.51,57.33,10,10.2-2.32,19.19-6.71,26.96-13.17.61-.49.61-.98.12-1.46-11.66-12.44-25.39-22.55-41.9-24.99-3.89-.61-8.26-.98-13.12-1.1-.61,0-.97-.73-.49-1.22l6.8-7.56c10.69,1.46,19.92.49,27.57-2.68,6.56-2.68,12.51-6.71,17.98-12.19.85-.85,1.34-1.83,1.58-2.8.12-.37,0-.61-.12-.85-1.58-2.32-3.16-4.51-4.98-6.71-3.52-4.39-9.11-6.95-14.09-9.63-3.64-1.95-8.5-3.05-14.45-3.17-2.31,0-3.28-.85-2.92-2.32,2.92-2.07,5.47-4.51,7.53-7.19,9.47-11.83,14.82-26.82,13-42.06,0-.49-.24-.73-.73-.73-1.21-.24-2.55-.37-3.89-.49-14.58-.73-27.57,1.22-40.2,8.9-.24.12-.61.12-1.34.12-.36-.37-.49-.49-.49-.24,1.46-3.54-.97-10.85-1.94-14.51-1.09-4.27-3.77-9.63-7.77-16.22-5.83-9.63-14.09-16.22-23.32-22.92h-.12c-7.77,5.24-14.45,11.58-20.04,19.02-7.04,9.39-10.93,19.99-11.9,31.7,0,.49,0,.85.24,1.22l.61.98Z"/>
    <path class="cls-4" d="M984.36,486.95c-9.35-42.67-25.14-83.51-47.49-122.65-9.96-17.68-21.38-34.5-34.25-50.35-4.25-5.24-7.17-8.29-8.62-9.27-4.13-2.56-8.87-2.07-14.21,1.34-22.11,14.26-42.88,28.65-62.31,43.16-14.45,10-27.57,19.75-39.47,29.5-13.12,10.85-26.36,23.9-39.72,39.26-18.22,21.09-31.22,47.18-40.08,74.13-3.77,11.46-5.83,24.51-7.53,36.45-5.1,37.79.85,75.83,18.34,109.48,3.89,7.32,6.44,12.19,7.89,14.51,16.88,26.94,39.84,48.89,65.22,68.52,21.26,16.34,41.66,30.72,62.55,46.69,15.91,12.07,32.19,24.63,48.83,37.55,3.52,2.68,6.44,4.51,8.75,5.24,4.37,1.46,8.38.24,11.9-3.66,4.01-4.39,7.89-9.63,11.66-15.73,9.47-15,16.76-27.92,21.98-38.77,5.83-12.19,11.78-24.63,16.28-37.43,6.07-16.82,10.93-32.19,14.58-45.96,8.02-30.48,12.51-62.42,13.24-95.71,1.09-29.87-1.58-58.64-7.53-86.32ZM771.32,514.38c2.79-5.24,5.83-10.61,9.6-15,11.17-12.68,24.53-20.73,40.32-24.14,27.21-5.85,53.69,1.95,73.24,21.95,4.98,5.12,9.6,11.95,13.72,20.73,3.16,6.58,5.1,14.14,6.07,22.8,1.34,13.05-.36,25.48-5.1,37.31-4.37,10.85-11.54,20.48-21.38,28.89-13.12,11.22-29.03,17.07-47.61,17.43-10.08.24-19.56-1.22-28.18-4.15-8.75-3.05-16.15-7.19-22.35-12.68-15.43-13.65-25.51-31.33-26.72-51.82-.85-14.75,1.46-28.29,8.38-41.33ZM926.06,629.71c-16.52,17.07-39.47,26.21-62.43,29.87-12.27,1.95-25.75,2.32-40.08,1.1-25.02-2.19-53.81-13.17-71.66-31.7-.73-.73-.49-.98.49-.98,5.1.49,9.84.85,14.33.98,55.39,1.83,108.34,1.71,158.99-.37.85,0,.97.37.36,1.1Z"/>
    <path class="cls-5" d="M510.42,432.94c-16.28-5.61-17.49-20.97-5.34-31.82,8.26-7.44,19.07-12.31,32.55-14.63,8.62-1.46,15.43,2.56,15.67,12.07.12,4.88.12,10.12.24,15.61,0,11.34-3.16,19.39-15.3,21.34-9.35,1.58-18.58.73-27.81-2.56Z"/>
    <path class="cls-5" d="M633.22,426.6c-7.89,8.66-25.87,10.36-36.44,9.27-6.32-.61-10.93-3.54-13.85-8.66-1.82-3.17-2.79-7.8-2.67-13.78,0-5.85.12-11.22.24-15.97.24-8.41,8.38-11.95,15.79-10.85,13.36,2.07,34.13,10.85,39.47,24.87,1.7,4.75.97,11.09-2.55,15.12Z"/>
    <path class="cls-5" d="M327.14,524.01c-3.04-1.71-6.19-3.78-9.11-5.12-14.82-6.58-29.88-6.83-45.18-.73-1.46.61-4.86,2.44-9.96,5.61l-.49-1.34c-.12-.37-.24-.85-.24-1.22.97-11.83,4.86-22.43,11.9-31.7,5.59-7.44,12.27-13.78,20.04-19.02h.12c9.23,6.71,17.37,13.29,23.32,22.92,4.01,6.58,6.56,11.95,7.77,16.22.85,3.66,3.28,10.97,1.82,14.39Z"/>
    <path class="cls-4" d="M495.12,540.96c-2.06.98-4.13,1.71-6.44,1.95-4.98.49-7.65-5.73-8.14-9.75-2.19-16.95,5.59-32.31,18.22-43.28,11.3-9.88,29.27-19.51,44.45-17.31,6.44.98,9.84,5,10.2,12.19.36,8.9.36,17.8-.12,26.82-.49,7.68-5.34,11.22-12.27,12.8-16.03,3.54-31.34,9.14-45.91,16.58Z"/>
    <path class="cls-4" d="M641.35,541.57c-9.47-4.02-18.83-8.53-28.91-11.22-6.56-1.83-14.09-3.9-22.47-6.46-7.41-2.19-9.96-8.29-9.96-15.48s0-14.63.12-21.7c.12-13.41,10.69-16.34,21.62-13.65,14.09,3.54,26.11,10.24,36.32,20.36,9.35,9.27,15.67,23.04,15.18,36.45-.24,6.34-4.13,15-11.9,11.7Z"/>
    <path class="cls-5" d="M771.32,514.38c2.79-5.24,5.83-10.61,9.6-15,11.17-12.68,24.53-20.73,40.32-24.14,27.21-5.85,53.69,1.95,73.24,21.95,4.98,5.12,9.6,11.95,13.72,20.73,3.16,6.58,5.1,14.14,6.07,22.8,1.34,13.05-.36,25.48-5.1,37.31-4.37,10.85-11.54,20.48-21.38,28.89-13.12,11.22-29.03,17.07-47.61,17.43-10.08.24-19.56-1.22-28.18-4.15-8.75-3.05-16.15-7.19-22.35-12.68-15.43-13.65-25.51-31.33-26.72-51.82-.85-14.75,1.46-28.29,8.38-41.33Z"/>
    <path class="cls-1" d="M327.14,524.01c0-.24.12-.12.49.24,4.74,3.78,8.14,6.83,10.08,9.02,8.14,9.27,13,19.87,14.7,31.94.36,7.32.24,13.53-.49,18.65-1.09,7.32-4.13,14.63-9.23,22.19l-6.8,7.56c-.49.49-.12,1.22.49,1.22,4.74.24,9.11.61,13.12,1.1,16.52,2.44,30.24,12.56,41.9,24.99.49.49.49.98-.12,1.46-7.89,6.46-16.88,10.97-26.96,13.17-19.8,4.51-41.42,2.56-57.33-10-4.13-3.29-7.89-6.83-11.17-10.73-.61-.61-1.58-.61-2.06,0-5.83,6.83-12.51,12.19-20.04,16.09-12.75,6.71-28.54,7.68-42.88,5.61-12.15-1.83-22.47-7.07-30.97-15.73-.36-.37-.36-.85,0-1.22,10.93-11.7,23.08-20.36,39.11-23.41,3.64-.73,8.38-1.22,14.21-1.71.61,0,.73-.24.24-.73l-6.44-7.56c-7.65-12.19-11.05-25.12-10.08-38.89l.24-2.44c2.67-16.95,10.81-30.36,24.41-40.23.61-.24,1.09-.73,1.34-1.22,5.1-3.05,8.5-5,9.96-5.61,15.3-6.1,30.49-5.85,45.18.73,3.04,1.71,6.07,3.78,9.11,5.49ZM339.16,573.02c0-24.51-19.8-44.38-44.21-44.38s-44.21,19.87-44.21,44.38,19.8,44.38,44.21,44.38,44.21-19.87,44.21-44.38Z"/>
    <path class="cls-5" d="M261.43,524.98c-13.6,9.88-21.86,23.29-24.41,40.23-.85,0-1.34,0-1.58-.24-15.3-12.68-20.53-29.14-19.92-48.77,0-.37.24-.61.61-.61,15.43-2.32,31.58.49,44.33,9.27.24.12.61.24.97.12Z"/>
    <path class="cls-5" d="M353.25,565.71l-.73-.49c-1.58-12.07-6.56-22.68-14.7-31.94-1.94-2.19-5.34-5.24-10.08-9.02.61,0,1.09,0,1.34-.12,12.63-7.68,25.63-9.63,40.2-8.9,1.34.12,2.55.24,3.89.49.49.12.61.37.73.73,1.82,15.36-3.52,30.24-13,42.06-2.31,2.8-4.86,5.12-7.65,7.19Z"/>
    <ellipse class="cls-4" cx="294.95" cy="573.02" rx="44.21" ry="44.38"/>
    <path class="cls-4" d="M500.34,638.61c-4.25-4.75-7.53-9.88-9.6-15.73.12-3.29.36-6.34.61-9.27.24-3.29.85-6.1,1.82-8.53,4.37-12.31,11.78-22.07,21.98-29.38,8.5-6.1,17.13-9.88,25.75-11.58,7.77-1.46,12.51,3.29,12.51,10.73,0,11.46-.12,21.95-.12,31.21,0,6.22-2.06,10.48-5.83,12.92-1.58.98-5.22,2.07-10.93,3.17-13.12,2.8-25.14,8.17-36.2,16.46Z"/>
    <path class="cls-4" d="M644.15,623.25l-10.08,16.34c-8.62-6.1-17.85-10.85-27.81-14.39-2.31-.85-7.77-2.32-16.4-4.63-3.52-.98-6.19-3.17-8.02-6.83-.97-1.95-1.46-4.39-1.46-7.32-.12-10.36-.12-21.58.12-33.53,0-1.95.61-3.78,1.58-5.36,4.01-6.34,14.94-3.66,21.01-.98,16.52,7.32,31.22,20.6,37.17,37.67,2.06,5.97,2.79,12.56,3.89,19.02Z"/>
    <path class="cls-4" d="M352.52,565.34l.73.49c-.36,1.46.73,2.32,2.92,2.32,5.95.12,10.69,1.22,14.45,3.17,4.86,2.68,10.57,5.36,14.09,9.63,1.82,2.19,3.4,4.51,4.98,6.71.12.24.24.61.12.85-.12.98-.73,1.95-1.58,2.8-5.47,5.49-11.42,9.51-17.98,12.19-7.77,3.17-17,4.02-27.57,2.68,5.1-7.56,8.26-14.87,9.23-22.19.73-5.12.97-11.34.61-18.65Z"/>
    <path class="cls-4" d="M236.77,567.66c-.97,13.78,2.43,26.7,10.08,38.89-9.47,1.46-18.58.61-27.21-2.44-7.65-2.68-13.97-7.92-19.56-13.53-.85-.85-.97-1.83-.24-2.8,8.38-11.58,19.8-18.29,34.25-20.24.85,0,1.7,0,2.67.12Z"/>
    <path class="cls-2" d="M634.07,639.59l10.08-16.34,9.11-14.63c.24-.49.97-.61,1.46-.24.73.73,1.34,1.71,1.82,2.93,2.06,6.34,3.64,13.05,6.07,19.26,11.17,29.26,27.57,55.23,49.07,78.15,11.9,12.8,25.14,24.51,39.47,35.36,15.79,11.83,31.22,23.41,46.28,34.75,24.53,18.53,46.76,38.65,66.68,60.59,6.19,6.95,11.42,15,3.77,23.65-4.13,4.63-8.62,9.27-13.24,13.78-59.64,57.42-129.72,94.12-210.73,110.09-10.57,2.07-22.83,3.78-36.68,5-8.02.73-14.7-.24-16.88-9.27-.73-3.17-1.34-6.22-1.7-9.27-4.98-37.06-8.02-74.25-7.41-111.43,0-3.05,2.92-4.02,5.1-2.19,5.1,4.39,10.2,8.41,15.3,12.19,17.25,12.56,36.32,21.58,56.96,26.94,19.68,5.12,39.6,5.61,59.52,1.34,10.93-2.32,21.5-6.83,31.94-13.53,4.62-2.93,9.35-7.32,9.96-13.05.85-8.9-6.8-13.53-14.7-13.41-13.36.12-26.36-.12-39.11-.73-39.84-1.83-80.16-15.36-106.76-44.87-8.26-9.14-14.33-18.78-17.85-28.89-2.06-5.73-3.04-14.87,4.13-17.43,1.58-.61,3.16-.24,4.74.85,12.75,9.63,27.81,16.7,44.94,21.34,17.37,4.63,33.64,6.34,50.28,8.17,10.08,1.1,20.04,3.05,30.12,4.75,23.2,3.9,42.88,8.9,63.77,18.04,9.72,4.27,17.37,8.78,23.08,13.65,1.09.85,1.21.73.61-.49-8.75-16.82-22.96-32.06-38.14-43.65-18.95-14.39-44.58-22.8-69.11-26.33-18.7-2.68-36.68-4.51-55.87-10.24-28.66-8.66-59.64-28.65-60.12-62.54-.12-9.27,0-17.19.24-23.65.24-5.36,4.98-7.8,9.84-7.56,8.75.37,14.33,4.15,20.89,9.39,6.56,5.24,14.82,6.22,22.47,2.56,9.96-4.75,12.87-17.8,7.17-26.82-1.46-2.19-3.64-4.39-6.56-6.22Z"/>
    <path class="cls-2" d="M490.86,622.88c2.06,5.85,5.34,10.97,9.6,15.73-3.64,2.32-6.19,4.88-7.77,7.56-5.71,10.24-1.82,23.65,9.6,27.55,8.02,2.8,15.79.61,22.11-4.88,5.83-5,13.72-8.29,21.13-7.92,5.47.24,8.38,3.78,8.38,9.14.24,13.17-.12,23.16-.97,29.87-4.25,31.7-38.14,49.13-65.59,56.08-15.67,3.9-32.07,5.85-47.86,8.29-28.79,4.39-58.3,14.26-80.53,34.26-11.42,10.24-20.77,22.31-28.18,36.09-.49.85-.24.98.49.37,7.41-5.49,15.91-10.24,25.51-14.14,13.97-5.73,28.06-10.24,42.39-13.29,16.88-3.66,31.58-6.22,44.09-7.8,10.57-1.34,21.26-2.68,31.94-4.27,24.53-3.54,48.58-11.58,68.5-26.46,1.21-.98,2.67-1.22,4.13-.73,10.45,3.17,4.13,19.26,1.09,25.48-7.65,15.48-19.31,28.41-34.86,38.77-13.85,9.27-28.66,15.97-44.58,20.36-15.3,4.15-30.73,6.46-46.4,6.83-12.02.37-23.81.49-35.34.49-3.28,0-7.29,1.22-9.6,3.66-9.11,9.51-.61,19.39,8.02,24.51,13.85,8.29,29.39,13.17,45.55,14.14,27.21,1.58,52.59-3.41,76.16-15.12,13.97-6.95,27.33-16.09,40.2-27.55,2.55-2.32,5.34-.37,5.22,2.8-.12,36.82-2.79,72.42-7.89,106.68-.73,4.75-1.58,9.39-2.55,13.9-1.7,7.44-8.26,9.02-15.06,8.41-14.33-1.22-28.42-3.29-42.15-6.34-15.91-3.54-32.19-7.32-47.98-12.68-30.36-10.36-58.79-22.68-85.51-39.5-15.79-10-28.79-19.02-39.11-27.07-14.21-11.09-28.66-24.26-43.48-39.5-6.32-6.46-10.32-13.53-3.89-22.07,3.4-4.51,6.8-8.41,9.96-11.7,19.19-19.63,37.05-35.6,53.81-48.04,24.66-18.29,49.68-36.7,73-56.57,7.04-5.97,13.6-12.19,19.56-18.65,4.13-4.39,9.23-10.61,15.55-18.65,5.1-6.58,9.72-13.17,13.6-19.75,7.77-13.05,14.82-27.43,20.16-42.31,2.43-6.83,4.98-13.41,7.77-19.75.36-.98,1.7-1.1,2.31-.24l9.47,14.02Z"/>
    <path class="cls-1" d="M823.42,660.68c-25.02-2.19-53.81-13.17-71.66-31.7-.73-.73-.49-.98.49-.98,5.1.49,9.84.85,14.33.98,55.39,1.83,108.34,1.71,158.99-.37.97,0,1.21.24.49,1.1-16.52,17.07-39.47,26.21-62.43,29.87-12.39,2.07-25.75,2.44-40.2,1.1Z"/>
  </g>
</svg>